<?xml version="1.0" encoding="utf-8"?>
<!-- Generator: Adobe Illustrator 16.0.0, SVG Export Plug-In . SVG Version: 6.00 Build 0)  -->
<!DOCTYPE svg PUBLIC "-//W3C//DTD SVG 1.1//EN" "http://www.w3.org/Graphics/SVG/1.1/DTD/svg11.dtd">
<svg version="1.1" xmlns="http://www.w3.org/2000/svg" xmlns:xlink="http://www.w3.org/1999/xlink" x="0px" y="0px" width="900px"
	 height="900px" viewBox="0 0 900 900" enable-background="new 0 0 900 900" xml:space="preserve">
<g id="Layer_1">
	<g>
		<g>
			<circle fill="#FFDE00" cx="449.964" cy="450.084" r="450"/>
			<path fill="#B2A054" d="M449.969-0.116c0,0,2.761,0.066,8.109,0.194c2.674,0.064,5.995,0.143,9.941,0.237
				c0.987,0.024,2.013,0.048,3.077,0.074c1.064,0.025,2.169,0.035,3.308,0.144c2.279,0.17,4.712,0.352,7.295,0.544
				c2.584,0.193,5.318,0.397,8.2,0.612c2.88,0.24,5.922,0.362,9.073,0.829c6.314,0.818,13.223,1.605,20.66,2.652
				c3.698,0.655,7.535,1.335,11.508,2.039c1.985,0.352,4.006,0.709,6.06,1.073c1.026,0.182,2.062,0.365,3.105,0.55
				c1.042,0.196,2.076,0.464,3.128,0.696c4.198,0.962,8.527,1.955,12.986,2.978c2.225,0.526,4.499,0.996,6.775,1.59
				c2.265,0.639,4.561,1.288,6.887,1.945c4.651,1.326,9.441,2.639,14.327,4.075c4.826,1.625,9.772,3.292,14.837,4.998
				c1.267,0.426,2.54,0.855,3.821,1.287c0.639,0.219,1.285,0.424,1.924,0.657c0.633,0.249,1.267,0.498,1.903,0.747
				c2.544,1,5.117,2.01,7.719,3.031c5.188,2.078,10.573,4.007,15.84,6.517c21.44,9.175,43.787,21.093,66.337,35.854
				c22.541,14.766,45.237,32.512,66.979,53.544c10.923,10.461,21.43,21.897,31.759,33.959l1.961,2.248
				c0.655,0.75,1.247,1.554,1.875,2.33c1.239,1.566,2.482,3.136,3.729,4.71c2.494,3.15,5.001,6.317,7.522,9.502
				c2.446,3.242,4.767,6.605,7.177,9.93c1.196,1.669,2.396,3.343,3.598,5.021c1.188,1.688,2.453,3.331,3.541,5.099
				c18.503,27.565,34.763,58.348,47.579,91.812l1.245,3.124c0.404,1.046,0.738,2.12,1.111,3.181c0.729,2.127,1.459,4.26,2.19,6.396
				c1.438,4.281,2.986,8.548,4.353,12.891c1.26,4.377,2.524,8.771,3.795,13.182c0.635,2.206,1.271,4.417,1.908,6.631
				c0.574,2.231,1.066,4.488,1.606,6.737c1.056,4.505,2.117,9.027,3.182,13.566c0.586,2.259,0.913,4.575,1.357,6.872
				c0.42,2.302,0.84,4.608,1.261,6.918c0.422,2.311,0.844,4.625,1.266,6.944l0.635,3.481l0.46,3.515
				c0.613,4.691,1.229,9.399,1.847,14.123c0.721,4.714,0.994,9.489,1.391,14.27c0.363,4.782,0.8,9.577,1.107,14.395
				c0.14,4.827,0.279,9.669,0.42,14.526c0.07,2.429,0.14,4.862,0.21,7.299c0.005,0.261,0.027,0.669,0.014,0.961l-0.02,0.911
				l-0.04,1.822l-0.079,3.649c-0.105,4.868-0.212,9.752-0.317,14.65l-0.04,1.838l-0.131,1.846l-0.267,3.697
				c-0.179,2.466-0.357,4.937-0.536,7.41c-0.499,9.929-1.973,19.775-3.154,29.721c-0.169,1.24-0.271,2.491-0.496,3.725l-0.647,3.706
				c-0.433,2.474-0.865,4.949-1.299,7.429c-0.435,2.48-0.868,4.963-1.304,7.449c-0.233,1.24-0.398,2.494-0.689,3.725l-0.839,3.699
				c-1.121,4.936-2.245,9.884-3.371,14.845c-0.511,2.494-1.25,4.934-1.931,7.391c-0.688,2.455-1.376,4.914-2.065,7.375
				c-0.689,2.462-1.381,4.927-2.072,7.395l-0.519,1.851l-0.604,1.826l-1.221,3.652c-1.629,4.872-3.263,9.756-4.899,14.65
				c-1.775,4.845-3.728,9.638-5.59,14.476c-0.945,2.414-1.891,4.831-2.837,7.251c-1.062,2.371-2.124,4.745-3.188,7.121
				c-16.663,38.183-39.192,74.55-66.586,107.572c-3.501,4.064-7.008,8.135-10.52,12.211l-1.322,1.524l-1.391,1.463l-2.783,2.929
				l-5.573,5.861c-1.868,1.947-3.7,3.932-5.602,5.851l-5.862,5.605l-5.871,5.612l-2.938,2.809c-0.969,0.949-2.031,1.795-3.043,2.698
				c-4.096,3.558-8.196,7.12-12.303,10.687l-1.54,1.337c-0.521,0.436-1.064,0.847-1.597,1.271l-3.206,2.527l-6.419,5.06
				c-2.146,1.678-4.269,3.394-6.44,5.044l-6.669,4.757l-6.676,4.762l-3.341,2.382c-1.107,0.804-2.29,1.498-3.432,2.253
				c-4.605,2.962-9.216,5.926-13.83,8.894l-1.73,1.112l-1.781,1.03l-3.566,2.058l-7.139,4.118c-2.388,1.359-4.745,2.777-7.162,4.09
				l-7.342,3.774l-7.349,3.776l-3.677,1.889c-1.23,0.621-2.503,1.153-3.753,1.735c-5.021,2.278-10.048,4.559-15.077,6.841
				l-1.889,0.85l-1.926,0.763l-3.854,1.525l-7.71,3.053c-2.577,1.001-5.13,2.073-7.729,3.017l-7.861,2.673l-7.866,2.674
				l-3.935,1.337c-1.313,0.442-2.659,0.778-3.987,1.172c-5.33,1.522-10.663,3.045-15.999,4.567l-2.001,0.571l-2.024,0.479
				l-4.055,0.942l-8.112,1.884l-8.118,1.873l-8.202,1.478l-8.205,1.477c-2.739,0.467-5.46,1.059-8.227,1.35l-16.549,2.127
				c-1.381,0.165-2.757,0.381-4.142,0.504l-4.16,0.323l-8.321,0.645l-8.322,0.644c-1.386,0.135-2.776,0.166-4.168,0.197
				l-4.172,0.112l-16.692,0.432l-16.652-0.443l-4.14-0.11c-1.379-0.03-2.758-0.062-4.155-0.196l-8.355-0.644l-8.354-0.646
				l-4.176-0.324c-1.389-0.124-2.762-0.339-4.143-0.505l-16.548-2.126c-2.767-0.291-5.488-0.883-8.227-1.35l-8.205-1.477
				l-8.202-1.478l-8.118-1.873l-8.112-1.884l-4.055-0.942l-2.025-0.479l-2.001-0.57c-5.335-1.523-10.668-3.046-15.998-4.567
				c-1.328-0.395-2.674-0.729-3.987-1.173l-3.935-1.336l-7.866-2.674l-7.861-2.673c-2.6-0.943-5.152-2.015-7.729-3.016l-7.71-3.053
				l-3.853-1.526l-1.926-0.763l-1.889-0.849c-5.029-2.282-10.055-4.563-15.077-6.842c-1.25-0.581-2.523-1.113-3.753-1.734
				l-3.677-1.889l-7.349-3.776l-7.342-3.774c-2.416-1.313-4.774-2.73-7.162-4.089l-7.138-4.118l-3.566-2.058l-1.782-1.03
				l-1.73-1.112c-4.614-2.968-9.224-5.932-13.83-8.894c-1.142-0.754-2.324-1.448-3.431-2.252l-3.341-2.383l-6.676-4.761
				l-6.668-4.757c-2.172-1.65-4.294-3.366-6.441-5.045l-6.418-5.059l-3.207-2.527c-0.531-0.424-1.074-0.834-1.596-1.27l-1.54-1.338
				c-4.106-3.566-8.207-7.129-12.302-10.687c-1.012-0.902-2.075-1.749-3.043-2.697l-2.938-2.809l-5.871-5.612l-5.862-5.605
				c-1.902-1.918-3.734-3.903-5.602-5.85l-5.573-5.862l-2.783-2.928l-1.391-1.463l-1.322-1.525
				c-3.508-4.079-7.011-8.151-10.509-12.219c-27.393-33.021-49.922-69.385-66.585-107.566c-1.064-2.376-2.126-4.749-3.188-7.12
				c-0.947-2.42-1.892-4.836-2.837-7.25c-1.863-4.838-3.814-9.631-5.59-14.476c-1.637-4.895-3.27-9.777-4.899-14.649l-1.221-3.652
				l-0.604-1.825l-0.519-1.852c-0.691-2.468-1.382-4.932-2.072-7.394c-0.689-2.461-1.378-4.92-2.066-7.375
				c-0.681-2.457-1.42-4.896-1.931-7.39c-1.126-4.961-2.25-9.909-3.371-14.845l-0.84-3.699c-0.291-1.229-0.456-2.484-0.689-3.724
				c-0.435-2.486-0.869-4.97-1.303-7.449c-0.434-2.479-0.867-4.955-1.299-7.428l-0.648-3.707c-0.224-1.233-0.327-2.484-0.496-3.724
				c-1.182-9.943-2.656-19.801-3.153-29.697c-0.179-2.468-0.357-4.933-0.536-7.395l-0.267-3.688l-0.131-1.843l-0.04-1.846
				c-0.107-4.919-0.214-9.823-0.32-14.713c-0.038-2.465-0.14-4.84-0.124-7.367c0.07-2.426,0.14-4.849,0.21-7.268
				c0.14-4.838,0.278-9.661,0.417-14.468c0.307-4.819,0.743-9.63,1.107-14.42c0.396-4.789,0.671-9.577,1.392-14.287
				c0.617-4.723,1.232-9.431,1.846-14.122l0.46-3.515l0.634-3.481c0.422-2.319,0.844-4.633,1.265-6.944
				c0.421-2.31,0.841-4.616,1.261-6.918c0.444-2.297,0.771-4.613,1.357-6.872c1.064-4.539,2.125-9.061,3.181-13.565
				c0.539-2.25,1.032-4.506,1.606-6.737c0.637-2.214,1.273-4.425,1.908-6.631c1.27-4.411,2.535-8.805,3.794-13.182
				c1.366-4.343,2.914-8.61,4.352-12.891c0.731-2.137,1.461-4.269,2.19-6.396c0.373-1.06,0.708-2.134,1.112-3.18l1.245-3.124
				c12.815-33.463,29.074-64.246,47.576-91.811c1.088-1.769,2.354-3.411,3.541-5.099c1.202-1.678,2.401-3.352,3.597-5.021
				c2.41-3.325,4.731-6.688,7.177-9.93c2.521-3.185,5.028-6.352,7.521-9.502c1.247-1.574,2.489-3.145,3.729-4.71
				c0.628-0.776,1.22-1.58,1.875-2.33l1.96-2.248c10.33-12.062,20.828-23.505,31.754-33.963
				c21.741-21.033,44.438-38.779,66.978-53.544c22.55-14.761,44.896-26.68,66.336-35.854c5.267-2.511,10.651-4.439,15.839-6.518
				c2.602-1.021,5.175-2.032,7.72-3.031c0.636-0.25,1.271-0.499,1.903-0.747c0.639-0.232,1.285-0.438,1.924-0.657
				c1.281-0.432,2.554-0.86,3.82-1.287c5.064-1.706,10.011-3.372,14.838-4.997c4.885-1.436,9.676-2.749,14.326-4.075
				c2.327-0.657,4.623-1.306,6.887-1.945c2.276-0.594,4.55-1.063,6.775-1.59c4.458-1.022,8.788-2.015,12.986-2.978
				c1.051-0.231,2.086-0.5,3.128-0.695c1.043-0.185,2.079-0.369,3.106-0.55c2.053-0.364,4.074-0.722,6.06-1.074
				c3.972-0.704,7.809-1.383,11.508-2.038c7.437-1.047,14.345-1.834,20.66-2.652c3.152-0.467,6.192-0.589,9.071-0.829
				c2.881-0.215,5.615-0.419,8.198-0.612c2.583-0.193,5.015-0.374,7.294-0.544c1.138-0.108,2.243-0.119,3.308-0.144
				c1.065-0.026,2.091-0.05,3.079-0.074c3.948-0.094,7.271-0.174,9.947-0.238c5.351-0.127,8.112-0.194,8.112-0.194H449.969z
				 M449.964,0.284c0,0-2.759,0.07-8.105,0.206c-2.673,0.068-5.993,0.152-9.938,0.252c-0.986,0.025-2.011,0.051-3.075,0.078
				s-2.167,0.039-3.305,0.149c-2.276,0.173-4.706,0.358-7.286,0.555c-2.58,0.196-5.311,0.405-8.189,0.624
				c-2.875,0.244-5.913,0.371-9.061,0.842C394.7,3.818,387.8,4.614,380.373,5.671c-3.693,0.66-7.524,1.345-11.491,2.054
				c-1.983,0.354-4,0.715-6.051,1.081c-1.025,0.184-2.059,0.368-3.101,0.554c-1.04,0.197-2.074,0.467-3.123,0.7
				c-4.191,0.968-8.514,1.966-12.965,2.994c-2.222,0.529-4.492,1.001-6.765,1.599c-2.26,0.642-4.552,1.293-6.875,1.953
				c-4.643,1.332-9.425,2.65-14.301,4.091c-4.817,1.63-9.755,3.302-14.81,5.013c-1.264,0.428-2.535,0.858-3.813,1.291
				c-0.638,0.22-1.283,0.425-1.92,0.659c-0.631,0.249-1.264,0.499-1.899,0.749c-2.54,1.001-5.107,2.015-7.704,3.039
				c-5.177,2.083-10.55,4.017-15.805,6.532c-21.393,9.193-43.685,21.127-66.172,35.896c-22.478,14.774-45.103,32.522-66.767,53.544
				c-10.879,10.46-21.365,21.873-31.614,33.956l-1.948,2.249c-0.651,0.751-1.239,1.555-1.862,2.332
				c-1.23,1.567-2.465,3.138-3.703,4.713c-2.476,3.151-4.965,6.32-7.468,9.506c-2.428,3.243-4.73,6.606-7.122,9.932
				c-1.187,1.669-2.376,3.343-3.569,5.021c-1.178,1.688-2.435,3.33-3.513,5.099c-18.35,27.56-34.443,58.307-47.09,91.698
				l-1.229,3.117c-0.399,1.044-0.729,2.115-1.096,3.173c-0.718,2.123-1.438,4.25-2.158,6.381c-1.417,4.271-2.944,8.526-4.289,12.858
				c-1.239,4.364-2.482,8.746-3.731,13.145c-0.625,2.2-1.25,4.403-1.876,6.612c-0.564,2.224-1.046,4.474-1.575,6.716
				c-1.036,4.49-2.075,8.998-3.119,13.521c-0.576,2.251-0.893,4.56-1.327,6.848c-0.409,2.294-0.819,4.592-1.23,6.894
				c-0.411,2.302-0.822,4.608-1.234,6.919l-0.619,3.468l-0.445,3.501c-0.593,4.673-1.188,9.362-1.786,14.067
				c-0.701,4.695-0.955,9.449-1.331,14.208c-0.345,4.761-0.762,9.532-1.05,14.328c-0.121,4.808-0.242,9.631-0.364,14.47
				c-0.061,2.419-0.122,4.842-0.183,7.269c-0.006,2.411,0.105,4.85,0.151,7.279c0.124,4.865,0.248,9.745,0.373,14.64l0.046,1.836
				l0.137,1.833l0.28,3.67c0.187,2.448,0.373,4.899,0.56,7.354c0.529,9.844,2.034,19.645,3.245,29.529
				c0.173,1.232,0.279,2.476,0.507,3.701l0.659,3.685c0.439,2.458,0.879,4.919,1.319,7.383s0.881,4.932,1.323,7.402
				c0.237,1.231,0.406,2.479,0.699,3.7l0.849,3.675c1.133,4.903,2.268,9.819,3.406,14.747c0.517,2.478,1.261,4.899,1.947,7.34
				c0.693,2.438,1.386,4.88,2.081,7.324c0.694,2.444,1.39,4.892,2.085,7.342l0.522,1.838l0.608,1.813l1.227,3.625
				c1.637,4.837,3.278,9.685,4.923,14.543c1.783,4.808,3.741,9.563,5.609,14.363c0.947,2.396,1.896,4.794,2.845,7.194
				c1.063,2.352,2.128,4.706,3.194,7.063c16.695,37.874,39.206,73.904,66.516,106.581c3.487,4.024,6.979,8.054,10.476,12.09
				l1.314,1.511l1.383,1.45l2.767,2.901l5.541,5.81c1.856,1.929,3.677,3.896,5.567,5.797l5.827,5.554l5.834,5.561l2.92,2.783
				c0.962,0.94,2.019,1.778,3.024,2.673c4.069,3.523,8.144,7.053,12.224,10.585l1.53,1.325c0.519,0.432,1.058,0.838,1.586,1.258
				l3.186,2.503l6.376,5.01c2.133,1.662,4.24,3.361,6.398,4.996l6.624,4.709l6.63,4.713l3.318,2.359
				c1.1,0.796,2.274,1.482,3.408,2.229c4.573,2.931,9.151,5.864,13.733,8.801l1.718,1.102l1.769,1.02l3.541,2.035l7.087,4.074
				c2.371,1.345,4.711,2.748,7.11,4.046l7.289,3.732l7.294,3.734l3.649,1.868c1.221,0.614,2.485,1.14,3.725,1.715
				c4.984,2.252,9.972,4.506,14.963,6.762l1.875,0.84l1.911,0.753l3.824,1.508l7.651,3.015c2.558,0.989,5.089,2.049,7.669,2.98
				l7.8,2.638l7.804,2.64l3.903,1.32c1.302,0.437,2.638,0.767,3.956,1.156c5.288,1.5,10.578,3.002,15.87,4.504l1.985,0.563
				l2.009,0.471l4.021,0.928l8.046,1.855l8.051,1.846l8.134,1.451l8.137,1.452c2.716,0.459,5.415,1.042,8.158,1.326l16.409,2.083
				c1.369,0.161,2.733,0.373,4.106,0.494l4.123,0.313l8.247,0.626l8.248,0.626c1.373,0.133,2.753,0.161,4.133,0.189l4.141,0.104
				l16.552,0.416l16.548-0.417l4.137-0.104c1.379-0.028,2.758-0.057,4.132-0.189l8.252-0.626l8.25-0.626l4.125-0.313
				c1.373-0.12,2.736-0.332,4.105-0.494l16.409-2.082c2.744-0.284,5.441-0.868,8.158-1.327l8.137-1.451l8.134-1.451l8.052-1.846
				l8.045-1.855l4.022-0.928l2.008-0.471l1.985-0.563c5.292-1.502,10.582-3.004,15.869-4.504c1.317-0.39,2.653-0.72,3.956-1.157
				l3.903-1.319l7.804-2.64l7.8-2.638c2.58-0.932,5.111-1.991,7.669-2.98l7.651-3.016l3.823-1.507l1.911-0.753l1.875-0.84
				c4.991-2.256,9.979-4.51,14.963-6.762c1.24-0.575,2.504-1.101,3.726-1.715l3.648-1.868l7.295-3.734l7.288-3.732
				c2.399-1.298,4.739-2.701,7.11-4.046l7.087-4.074l3.541-2.035l1.77-1.02l1.718-1.101c4.582-2.938,9.16-5.871,13.733-8.802
				c1.134-0.747,2.308-1.434,3.407-2.229l3.318-2.358l6.631-4.714l6.623-4.709c2.158-1.635,4.266-3.334,6.398-4.996l6.377-5.01
				l3.186-2.502c0.527-0.421,1.067-0.827,1.586-1.259l1.529-1.324c4.08-3.533,8.154-7.062,12.225-10.586
				c1.005-0.895,2.062-1.732,3.024-2.672l2.919-2.783l5.835-5.562l5.826-5.553c1.891-1.901,3.711-3.869,5.567-5.798l5.54-5.809
				l2.768-2.902l1.383-1.449l1.314-1.512c3.497-4.035,6.989-8.065,10.476-12.09c27.311-32.676,49.82-68.706,66.516-106.581
				c1.066-2.356,2.131-4.711,3.194-7.063c0.949-2.4,1.897-4.798,2.845-7.193c1.868-4.801,3.826-9.557,5.609-14.364
				c1.645-4.858,3.285-9.706,4.923-14.542l1.227-3.625l0.608-1.813l0.522-1.839c0.695-2.45,1.391-4.896,2.086-7.341
				c0.694-2.444,1.388-4.886,2.08-7.324c0.687-2.44,1.431-4.862,1.947-7.34c1.138-4.928,2.273-9.844,3.405-14.747l0.849-3.675
				c0.294-1.222,0.462-2.469,0.699-3.701c0.441-2.471,0.883-4.938,1.323-7.401c0.44-2.465,0.88-4.926,1.319-7.383l0.658-3.685
				c0.228-1.226,0.334-2.47,0.507-3.702c1.211-9.884,2.716-19.687,3.244-29.524c0.188-2.455,0.374-4.905,0.561-7.353l0.279-3.669
				l0.138-1.832l0.047-1.837c0.124-4.898,0.248-9.781,0.372-14.649c0.047-2.431,0.158-4.873,0.151-7.284
				c-0.061-2.425-0.122-4.847-0.183-7.264c-0.121-4.835-0.242-9.656-0.363-14.46c-0.288-4.796-0.706-9.57-1.05-14.332
				c-0.377-4.76-0.631-9.516-1.332-14.21c-0.597-4.705-1.192-9.394-1.785-14.067l-0.445-3.501l-0.619-3.468
				c-0.412-2.311-0.823-4.617-1.234-6.919c-0.411-2.302-0.82-4.6-1.23-6.894c-0.434-2.289-0.751-4.597-1.326-6.848
				c-1.043-4.524-2.083-9.031-3.119-13.521c-0.528-2.242-1.01-4.492-1.574-6.716c-0.627-2.208-1.252-4.412-1.877-6.612
				c-1.248-4.399-2.491-8.781-3.73-13.145c-1.345-4.332-2.871-8.587-4.288-12.858c-0.722-2.131-1.44-4.259-2.158-6.381
				c-0.368-1.058-0.697-2.129-1.097-3.173l-1.229-3.117c-12.646-33.391-28.74-64.138-47.09-91.698
				c-1.079-1.768-2.335-3.41-3.513-5.099c-1.193-1.678-2.383-3.352-3.569-5.021c-2.392-3.325-4.694-6.689-7.122-9.932
				c-2.503-3.186-4.992-6.355-7.468-9.506c-1.238-1.576-2.473-3.146-3.703-4.713c-0.623-0.776-1.211-1.581-1.862-2.331l-1.947-2.25
				c-10.249-12.083-20.735-23.496-31.614-33.956c-21.664-21.022-44.29-38.77-66.768-53.544
				c-22.487-14.769-44.778-26.703-66.172-35.896c-5.255-2.515-10.628-4.448-15.806-6.532c-2.596-1.024-5.164-2.037-7.703-3.039
				c-0.635-0.25-1.269-0.5-1.899-0.749c-0.638-0.233-1.282-0.439-1.92-0.659c-1.278-0.433-2.55-0.863-3.813-1.291
				c-5.055-1.711-9.992-3.382-14.81-5.013c-4.876-1.441-9.658-2.759-14.301-4.091c-37.253-10.385-67.645-13.739-88.25-15.082
				c-2.58-0.196-5.009-0.381-7.285-0.555c-1.136-0.11-2.24-0.122-3.305-0.148c-1.064-0.027-2.09-0.053-3.077-0.078
				c-3.946-0.101-7.268-0.185-9.941-0.253c-5.349-0.136-8.108-0.206-8.108-0.206H449.964z"/>
		</g>
		<g>
			<g>
				<g>
					<polygon fill="#F3E103" points="148.543,352.147 140.803,177.771 286.515,71.904 449.964,133.152 449.964,276.151 
						286.515,394.904 					"/>
					<path fill="#B2A054" d="M148.343,352.156c-0.86-14.521-1.803-29.04-2.595-43.564l-2.459-43.571l-2.456-43.571l-2.255-43.58
						l-0.061-1.179l0.977-0.721l72.467-53.469l18.117-13.367l18.176-13.286l36.364-26.555l1.396-1.019l1.635,0.607l81.799,30.426
						l40.899,15.212l20.45,7.606l20.413,7.704l2.309,0.872l-0.006,2.451l-0.345,142.999l-0.004,1.64l-1.316,0.952l-40.934,29.589
						l-41.065,29.409l-82.158,58.78l-0.827,0.592l-0.939-0.3l-17.201-5.491l-17.183-5.551l-34.365-11.102l-34.365-11.101
						l-34.458-11.274L148.343,352.156z M148.737,351.998l137.854,42.661l-0.227,0.038l163.402-118.817l-0.138,0.271l-0.056-142.999
						l0.254,0.367l-163.43-61.297l0.319-0.043l-145.753,105.81l0.11-0.229L148.737,351.998z"/>
				</g>
				<g>
					<polygon fill="#FFF100" points="804.486,659.965 636.252,706.488 550.98,587.049 613.413,394.904 751.385,352.148 
						860.143,488.67 					"/>
					<path fill="#B2A054" d="M804.54,660.157c-13.963,4.084-27.903,8.247-41.884,12.266l-41.919,12.135l-41.92,12.134
						l-41.973,11.938l-1.479,0.421l-0.922-1.271l-43.072-59.407l-21.537-29.704l-10.717-14.888l-10.695-14.904l-0.92-1.282
						l0.488-1.517l30.983-96.148l15.492-48.074l7.746-24.037c2.567-8.017,5.18-16.02,7.809-24.017l0.58-1.766l1.757-0.54
						l138.074-42.424l2.109-0.648l1.361,1.717l27.107,34.196l13.543,17.107l13.471,17.164l53.882,68.657l0.759,0.966l-0.378,1.135
						l-14.226,42.723l-14.407,42.663l-14.424,42.658c-4.78,14.229-9.704,28.41-14.553,42.616l-0.035,0.102L804.54,660.157z
						 M804.329,659.801l55.557-171.214l0.046,0.251L751.12,352.359l0.364,0.112l-137.954,42.81l0.258-0.255l-62.497,192.124
						l-0.045-0.29l85.225,119.473l-0.29-0.103L804.329,659.801z"/>
				</g>
				<g>
					<polygon fill="#FFF100" points="613.413,394.904 449.964,276.151 449.964,133.152 613.413,71.904 759.126,177.771 
						751.385,352.148 					"/>
					<path fill="#B2A054" d="M613.377,395.123l-20.752-14.571l-20.628-14.573l-41.22-29.197l-20.609-14.599l-20.551-14.679
						l-41.081-29.388l-0.992-0.709l-0.009-1.255l-0.525-71.5l-0.12-17.875l-0.043-17.875l-0.087-35.75l-0.005-2.213l2.085-0.788
						l81.65-30.823l40.825-15.411l20.413-7.706c6.799-2.581,13.613-5.124,20.433-7.652l1.81-0.671l1.543,1.126L760.97,175.233
						l1.368,1l-0.079,1.677l-1.02,21.795l-1.097,21.791l-2.254,43.58l-4.507,87.16l-0.074,1.42l-1.331,0.4l-17.292,5.198
						l-17.311,5.138l-34.62,10.277l-34.621,10.277L613.377,395.123z M613.449,394.683l137.859-42.78l-0.18,0.234l7.673-174.38
						l0.133,0.277L613.181,72.224l0.371,0.05l-163.47,61.192l0.218-0.314l-0.056,142.999l-0.115-0.226L613.449,394.683z"/>
				</g>
				<g>
					<polygon fill="#FFF100" points="263.675,706.487 95.442,659.965 39.786,488.67 148.543,352.147 286.515,394.904 
						348.946,587.049 					"/>
					<path fill="#B2A054" d="M263.622,706.68c-14.077-3.67-28.175-7.261-42.234-10.996l-42.197-11.126l-42.197-11.129L94.85,662.106
						l-1.138-0.306l-0.383-1.149l-28.455-85.443l-7.114-21.361l-7.023-21.391l-14.018-42.789l-0.538-1.642l1.082-1.365
						l54.213-68.393l27.106-34.197l13.553-17.098l13.627-17.039l1.521-1.902l2.31,0.722l137.869,43.089l1.593,0.498l0.507,1.574
						l15.492,48.074l15.287,48.141l30.517,96.299l0.311,0.982l-0.587,0.809l-10.779,14.844l-10.837,14.804l-21.673,29.605
						l-21.673,29.605l-21.866,29.639L263.622,706.68z M263.593,706.257l85.144-119.357l-0.035,0.229l-62.506-192.12l0.22,0.217
						l-137.989-42.703l0.423-0.13L40.052,488.881l0.057-0.315l55.588,171.316l-0.184-0.176L263.593,706.257z"/>
				</g>
				<g>
					<polygon fill="#F3E103" points="636.252,706.488 540.02,852.111 359.91,852.111 263.676,706.487 348.947,587.049 
						550.98,587.049 					"/>
					<path fill="#B2A054" d="M636.419,706.599c-7.841,12.253-15.613,24.552-23.51,36.768l-23.623,36.693l-23.623,36.693
						l-23.792,36.582l-0.642,0.986l-1.21,0.009l-90.055,0.658l-22.514,0.164l-22.514,0.073l-45.027,0.108l-1.726,0.004l-0.963-1.45
						l-48.293-72.695l-24.146-36.348l-12.073-18.174l-11.999-18.224l-1.348-2.047l1.421-1.979l85.558-119.233l0.966-1.346
						l1.641,0.004l50.508,0.121l50.508,0.34l101.017,0.733l1.05,0.007l0.585,0.835l10.539,15.016l10.481,15.057l20.963,30.113
						l20.963,30.113l20.931,30.304L636.419,706.599z M636.01,706.492l-85.238-119.294l0.209,0.107l-202.033,0.079l0.273-0.141
						l-85.225,119.472l0.008-0.445l96.189,145.654l-0.283-0.152l180.109,0.07l-0.224,0.12L636.01,706.492z"/>
				</g>
			</g>
			<path fill="#C5B358" stroke="#B2A054" stroke-miterlimit="10" d="M140.803,177.771l-64.246,21.104
				C31.015,266.438,3.328,347.031,0.256,433.891l39.53,54.779l108.758-136.523L140.803,177.771z M613.413,71.904l-39.991-54.672
				C534.191,6.065,492.775,0.084,449.964,0.084s-84.227,5.98-123.457,17.148l-39.992,54.672l163.449,61.248L613.413,71.904z
				 M550.98,587.049l62.433-192.145L449.964,276.151L286.515,394.904l62.431,192.145H550.98z M823.37,198.874l-64.244-21.103
				l-7.741,174.377L860.143,488.67l39.529-54.777C896.6,347.032,868.914,266.438,823.37,198.874z M540.02,852.111l64.502,20.728
				C684,843.775,752.989,792.936,804.269,727.543l0.219-67.578l-168.234,46.523L540.02,852.111z M95.442,659.965l0.217,67.58
				c51.28,65.391,120.27,116.229,199.748,145.294l64.501-20.728l-96.234-145.624L95.442,659.965z"/>
		</g>
	</g>
	<path opacity="0.3" fill="#FFFFFF" fill-opacity="0.6" d="M56.661,327.704c37.71,103.608,205.051,137.82,373.765,76.413
		C599.14,342.709,705.338,208.938,667.629,105.33C629.918,1.721,462.578-32.49,293.864,28.917
		c-13.928,5.069-27.429,10.631-40.458,16.629c-9.26,4.263-18.283,8.746-27.05,13.428C109.28,121.494,37.631,219.546,50.554,303.823
		C51.797,311.925,53.82,319.9,56.661,327.704z"/>
</g>
<g id="Layer_2">
	<linearGradient id="SVGID_1_" gradientUnits="userSpaceOnUse" x1="224.4629" y1="62.0898" x2="673.5381" y2="839.9109">
		<stop  offset="0.2624" style="stop-color:#FFF7B3"/>
		<stop  offset="0.9088" style="stop-color:#804E20"/>
		<stop  offset="1" style="stop-color:#C39433"/>
	</linearGradient>
	<circle opacity="0.2" fill="url(#SVGID_1_)" cx="449" cy="451" r="449"/>
</g>
</svg>
