<?xml version="1.0" encoding="utf-8"?>
<!-- Generator: Adobe Illustrator 16.0.0, SVG Export Plug-In . SVG Version: 6.00 Build 0)  -->
<!DOCTYPE svg PUBLIC "-//W3C//DTD SVG 1.1//EN" "http://www.w3.org/Graphics/SVG/1.1/DTD/svg11.dtd">
<svg version="1.1" id="Layer_1" xmlns="http://www.w3.org/2000/svg" xmlns:xlink="http://www.w3.org/1999/xlink" x="0px" y="0px"
	 width="900px" height="900px" viewBox="0 0 900 900" enable-background="new 0 0 900 900" xml:space="preserve">
<g>
	<g>
		<circle fill="#FFFFFF" cx="449.964" cy="450.084" r="450"/>
		<path fill="#020202" stroke="#000000" stroke-width="3" stroke-miterlimit="10" d="M449.969-0.116c0,0,2.762,0.066,8.109,0.194
			c2.674,0.064,5.995,0.143,9.94,0.237c0.987,0.024,2.014,0.048,3.077,0.074c1.064,0.025,2.169,0.035,3.309,0.144
			c2.278,0.17,4.712,0.352,7.295,0.544c2.584,0.193,5.317,0.397,8.2,0.612c2.88,0.24,5.922,0.362,9.072,0.829
			c6.314,0.818,13.224,1.605,20.66,2.652c3.698,0.655,7.535,1.335,11.508,2.039c1.985,0.352,4.007,0.709,6.061,1.073
			c1.025,0.182,2.062,0.365,3.104,0.55c1.042,0.196,2.076,0.464,3.128,0.696c4.198,0.962,8.527,1.955,12.986,2.978
			c2.225,0.526,4.499,0.996,6.775,1.59c2.265,0.639,4.561,1.288,6.887,1.945c4.651,1.326,9.441,2.639,14.327,4.075
			c4.826,1.625,9.771,3.292,14.837,4.998c1.267,0.426,2.54,0.854,3.821,1.287c0.639,0.219,1.284,0.424,1.924,0.657
			c0.633,0.249,1.267,0.498,1.902,0.747c2.545,1,5.117,2.01,7.72,3.031c5.188,2.078,10.573,4.007,15.84,6.517
			c21.44,9.175,43.787,21.093,66.337,35.854c22.541,14.766,45.237,32.512,66.979,53.544c10.924,10.461,21.431,21.897,31.76,33.959
			l1.961,2.248c0.654,0.75,1.247,1.554,1.875,2.33c1.238,1.566,2.481,3.136,3.729,4.71c2.494,3.15,5.001,6.317,7.522,9.502
			c2.445,3.242,4.767,6.605,7.177,9.93c1.196,1.669,2.396,3.343,3.598,5.021c1.188,1.688,2.453,3.331,3.541,5.099
			c18.503,27.565,34.764,58.348,47.579,91.812l1.245,3.124c0.404,1.046,0.738,2.12,1.111,3.181c0.729,2.127,1.459,4.26,2.189,6.396
			c1.438,4.281,2.986,8.548,4.354,12.891c1.26,4.377,2.523,8.771,3.795,13.182c0.635,2.206,1.271,4.417,1.908,6.631
			c0.574,2.231,1.065,4.488,1.605,6.737c1.057,4.505,2.117,9.027,3.183,13.566c0.586,2.259,0.913,4.575,1.356,6.872
			c0.42,2.302,0.84,4.608,1.262,6.918c0.422,2.311,0.844,4.625,1.266,6.944l0.635,3.481l0.46,3.515
			c0.613,4.691,1.229,9.399,1.847,14.123c0.722,4.714,0.994,9.489,1.392,14.271c0.363,4.781,0.8,9.576,1.106,14.395
			c0.141,4.827,0.279,9.669,0.42,14.526c0.07,2.429,0.141,4.861,0.211,7.299c0.005,0.261,0.026,0.669,0.014,0.961l-0.021,0.911
			l-0.04,1.822l-0.078,3.648c-0.105,4.868-0.213,9.752-0.317,14.65l-0.04,1.838l-0.131,1.846l-0.268,3.697
			c-0.179,2.466-0.356,4.937-0.535,7.41c-0.499,9.929-1.974,19.774-3.154,29.721c-0.169,1.24-0.271,2.491-0.496,3.725l-0.646,3.706
			c-0.434,2.475-0.865,4.949-1.3,7.43c-0.435,2.479-0.868,4.963-1.304,7.448c-0.233,1.24-0.398,2.494-0.689,3.726l-0.839,3.698
			c-1.121,4.937-2.245,9.885-3.371,14.846c-0.511,2.494-1.25,4.934-1.931,7.391c-0.688,2.455-1.376,4.914-2.064,7.375
			c-0.689,2.462-1.382,4.927-2.072,7.396l-0.52,1.851l-0.604,1.826l-1.221,3.652c-1.63,4.871-3.264,9.756-4.899,14.649
			c-1.775,4.845-3.729,9.638-5.59,14.477c-0.945,2.413-1.892,4.831-2.837,7.251c-1.063,2.37-2.124,4.744-3.188,7.12
			c-16.663,38.184-39.191,74.551-66.586,107.572c-3.501,4.064-7.008,8.135-10.52,12.211l-1.322,1.524l-1.392,1.463l-2.782,2.929
			l-5.573,5.861c-1.868,1.947-3.7,3.932-5.602,5.851l-5.862,5.605l-5.871,5.612l-2.938,2.809c-0.969,0.949-2.03,1.795-3.043,2.698
			c-4.096,3.558-8.195,7.12-12.303,10.687l-1.54,1.337c-0.521,0.437-1.063,0.848-1.597,1.271l-3.206,2.526l-6.419,5.061
			c-2.146,1.678-4.27,3.394-6.44,5.044l-6.669,4.757l-6.676,4.762l-3.341,2.383c-1.107,0.804-2.29,1.498-3.433,2.253
			c-4.604,2.962-9.216,5.926-13.83,8.894l-1.729,1.112l-1.781,1.03l-3.565,2.058l-7.14,4.118c-2.388,1.358-4.745,2.776-7.161,4.09
			l-7.343,3.774l-7.349,3.775l-3.677,1.889c-1.23,0.621-2.503,1.153-3.753,1.735c-5.021,2.278-10.049,4.56-15.077,6.841l-1.89,0.851
			l-1.926,0.763l-3.854,1.525l-7.71,3.053c-2.577,1.001-5.13,2.073-7.729,3.017l-7.861,2.673l-7.865,2.675l-3.936,1.337
			c-1.313,0.441-2.659,0.777-3.986,1.172c-5.33,1.521-10.663,3.045-16,4.566l-2,0.571l-2.024,0.479l-4.055,0.941l-8.112,1.884
			l-8.118,1.873l-8.202,1.479l-8.205,1.477c-2.738,0.467-5.46,1.06-8.227,1.351l-16.549,2.127c-1.381,0.165-2.757,0.381-4.143,0.504
			l-4.16,0.323l-8.32,0.645l-8.322,0.644c-1.386,0.136-2.776,0.166-4.168,0.197l-4.172,0.112l-16.692,0.432l-16.651-0.442
			l-4.141-0.11c-1.379-0.03-2.758-0.062-4.154-0.196l-8.355-0.644l-8.354-0.646l-4.176-0.323c-1.389-0.124-2.762-0.339-4.143-0.505
			l-16.548-2.126c-2.768-0.291-5.488-0.884-8.228-1.351l-8.205-1.477l-8.202-1.479l-8.117-1.873l-8.112-1.884l-4.055-0.941
			l-2.025-0.479l-2.001-0.57c-5.335-1.522-10.668-3.046-15.998-4.566c-1.328-0.396-2.674-0.729-3.987-1.173l-3.935-1.336
			l-7.866-2.675l-7.861-2.673c-2.6-0.942-5.152-2.015-7.729-3.016l-7.71-3.053l-3.853-1.526l-1.926-0.763l-1.889-0.85
			c-5.029-2.281-10.055-4.563-15.077-6.842c-1.25-0.581-2.523-1.113-3.753-1.734l-3.677-1.889l-7.349-3.775l-7.342-3.774
			c-2.416-1.313-4.774-2.73-7.162-4.089l-7.138-4.118l-3.566-2.058l-1.782-1.03l-1.73-1.112c-4.614-2.968-9.224-5.932-13.83-8.894
			c-1.142-0.754-2.324-1.448-3.431-2.252l-3.341-2.384l-6.676-4.761l-6.668-4.757c-2.172-1.65-4.294-3.366-6.441-5.045l-6.418-5.059
			l-3.207-2.527c-0.531-0.424-1.074-0.834-1.596-1.271l-1.54-1.338c-4.106-3.565-8.207-7.129-12.302-10.687
			c-1.012-0.902-2.075-1.749-3.043-2.697l-2.938-2.809l-5.871-5.612l-5.862-5.605c-1.902-1.918-3.734-3.902-5.602-5.85l-5.573-5.862
			l-2.783-2.928l-1.391-1.463l-1.322-1.525c-3.508-4.078-7.011-8.15-10.509-12.219c-27.393-33.021-49.922-69.385-66.585-107.565
			c-1.064-2.376-2.126-4.749-3.188-7.12c-0.947-2.42-1.892-4.836-2.837-7.25c-1.863-4.838-3.814-9.631-5.59-14.477
			c-1.637-4.895-3.27-9.776-4.899-14.648l-1.221-3.652l-0.604-1.825l-0.519-1.852c-0.691-2.468-1.382-4.933-2.072-7.395
			c-0.689-2.461-1.378-4.92-2.066-7.375c-0.681-2.457-1.42-4.896-1.931-7.39c-1.126-4.961-2.25-9.909-3.371-14.845l-0.84-3.699
			c-0.291-1.229-0.456-2.484-0.689-3.724c-0.435-2.486-0.869-4.971-1.303-7.449c-0.434-2.479-0.867-4.955-1.299-7.428l-0.648-3.707
			c-0.224-1.233-0.327-2.484-0.496-3.725c-1.182-9.942-2.656-19.801-3.153-29.696c-0.179-2.469-0.357-4.934-0.536-7.396
			l-0.267-3.688l-0.131-1.844l-0.04-1.846c-0.107-4.919-0.214-9.823-0.32-14.713c-0.038-2.465-0.14-4.84-0.124-7.367
			c0.07-2.426,0.14-4.849,0.21-7.268c0.14-4.838,0.278-9.661,0.417-14.469c0.307-4.818,0.743-9.63,1.107-14.42
			c0.396-4.789,0.671-9.576,1.392-14.286c0.617-4.724,1.232-9.432,1.846-14.123l0.46-3.515l0.634-3.481
			c0.422-2.319,0.844-4.633,1.265-6.944c0.421-2.31,0.841-4.616,1.261-6.918c0.444-2.297,0.771-4.613,1.357-6.872
			c1.064-4.539,2.125-9.061,3.181-13.565c0.539-2.25,1.032-4.506,1.606-6.737c0.637-2.214,1.273-4.425,1.908-6.631
			c1.27-4.411,2.535-8.805,3.794-13.182c1.366-4.343,2.914-8.61,4.352-12.891c0.731-2.137,1.461-4.269,2.19-6.396
			c0.373-1.06,0.708-2.134,1.112-3.18l1.245-3.124c12.815-33.463,29.074-64.246,47.576-91.811c1.088-1.769,2.354-3.411,3.541-5.099
			c1.202-1.678,2.401-3.352,3.597-5.021c2.41-3.325,4.731-6.688,7.177-9.93c2.521-3.185,5.028-6.352,7.521-9.502
			c1.247-1.574,2.489-3.145,3.729-4.71c0.628-0.776,1.22-1.58,1.875-2.33l1.96-2.248c10.33-12.062,20.828-23.505,31.754-33.963
			c21.741-21.033,44.438-38.779,66.978-53.544c22.55-14.761,44.896-26.68,66.336-35.854c5.267-2.511,10.651-4.439,15.839-6.518
			c2.602-1.021,5.175-2.032,7.72-3.031c0.636-0.25,1.271-0.499,1.903-0.747c0.639-0.232,1.285-0.438,1.924-0.657
			c1.281-0.432,2.554-0.86,3.82-1.287c5.064-1.706,10.011-3.372,14.838-4.997c4.885-1.436,9.676-2.749,14.325-4.075
			c2.327-0.657,4.623-1.306,6.888-1.945c2.275-0.594,4.55-1.063,6.774-1.59c4.458-1.022,8.788-2.015,12.986-2.978
			c1.051-0.231,2.086-0.5,3.128-0.695c1.043-0.185,2.079-0.369,3.106-0.55c2.053-0.364,4.073-0.722,6.06-1.074
			c3.972-0.704,7.809-1.383,11.508-2.038c7.438-1.047,14.345-1.834,20.66-2.652c3.152-0.467,6.192-0.589,9.071-0.829
			c2.881-0.215,5.615-0.419,8.198-0.612c2.583-0.193,5.015-0.374,7.294-0.544c1.138-0.108,2.242-0.119,3.308-0.144
			c1.065-0.026,2.091-0.05,3.079-0.074c3.948-0.094,7.271-0.174,9.947-0.238c5.351-0.127,8.111-0.194,8.111-0.194h0.004V-0.116z
			 M449.964,0.284c0,0-2.759,0.07-8.104,0.206c-2.674,0.068-5.993,0.152-9.938,0.252c-0.986,0.025-2.011,0.051-3.075,0.078
			c-1.063,0.027-2.167,0.039-3.305,0.149c-2.276,0.173-4.706,0.358-7.286,0.555c-2.58,0.196-5.311,0.405-8.188,0.624
			c-2.875,0.244-5.913,0.371-9.062,0.842C394.7,3.818,387.8,4.614,380.373,5.671c-3.693,0.66-7.524,1.345-11.491,2.054
			c-1.982,0.354-4,0.715-6.051,1.081c-1.025,0.184-2.059,0.368-3.101,0.554c-1.04,0.197-2.074,0.467-3.123,0.7
			c-4.191,0.968-8.515,1.966-12.966,2.994c-2.222,0.529-4.491,1.001-6.765,1.599c-2.26,0.642-4.552,1.293-6.875,1.953
			c-4.643,1.332-9.425,2.65-14.301,4.091c-4.817,1.63-9.755,3.302-14.81,5.013c-1.264,0.428-2.535,0.858-3.813,1.291
			c-0.638,0.22-1.283,0.425-1.92,0.659c-0.631,0.249-1.264,0.499-1.899,0.749c-2.54,1.001-5.107,2.015-7.704,3.039
			c-5.177,2.083-10.55,4.017-15.805,6.532c-21.393,9.193-43.685,21.127-66.172,35.896c-22.478,14.774-45.103,32.522-66.767,53.544
			c-10.879,10.46-21.365,21.873-31.614,33.956l-1.948,2.249c-0.651,0.751-1.239,1.555-1.862,2.332
			c-1.23,1.567-2.465,3.138-3.703,4.713c-2.476,3.151-4.965,6.32-7.468,9.506c-2.428,3.243-4.73,6.606-7.122,9.932
			c-1.187,1.669-2.376,3.343-3.569,5.021c-1.178,1.688-2.435,3.33-3.513,5.099c-18.35,27.56-34.443,58.307-47.09,91.698
			l-1.229,3.117c-0.399,1.044-0.729,2.115-1.096,3.173c-0.718,2.123-1.438,4.25-2.158,6.381c-1.417,4.271-2.944,8.526-4.289,12.858
			c-1.239,4.364-2.482,8.746-3.731,13.145c-0.625,2.2-1.25,4.403-1.876,6.612c-0.564,2.224-1.046,4.474-1.575,6.716
			c-1.036,4.49-2.075,8.998-3.119,13.521c-0.576,2.251-0.893,4.56-1.327,6.848c-0.409,2.294-0.819,4.592-1.23,6.894
			c-0.411,2.302-0.822,4.608-1.234,6.919l-0.619,3.468l-0.445,3.501c-0.593,4.673-1.188,9.362-1.786,14.067
			c-0.701,4.694-0.955,9.448-1.331,14.207c-0.345,4.762-0.762,9.532-1.05,14.328c-0.121,4.809-0.242,9.632-0.364,14.471
			c-0.061,2.419-0.122,4.842-0.183,7.269c-0.006,2.411,0.105,4.851,0.151,7.279c0.124,4.865,0.248,9.745,0.373,14.64l0.046,1.836
			l0.137,1.833l0.28,3.67c0.187,2.448,0.373,4.899,0.56,7.354c0.529,9.844,2.034,19.645,3.245,29.529
			c0.173,1.231,0.279,2.476,0.507,3.7l0.659,3.686c0.439,2.458,0.879,4.919,1.319,7.383s0.881,4.932,1.323,7.402
			c0.237,1.23,0.406,2.479,0.699,3.699l0.849,3.676c1.133,4.902,2.268,9.818,3.406,14.747c0.517,2.478,1.261,4.898,1.947,7.34
			c0.693,2.438,1.386,4.88,2.081,7.324c0.694,2.443,1.39,4.892,2.085,7.342l0.522,1.838l0.608,1.813l1.227,3.625
			c1.637,4.837,3.278,9.686,4.923,14.543c1.783,4.809,3.741,9.563,5.609,14.363c0.947,2.396,1.896,4.794,2.845,7.194
			c1.063,2.352,2.128,4.706,3.194,7.063c16.695,37.874,39.206,73.904,66.516,106.581c3.487,4.024,6.979,8.054,10.476,12.09
			l1.314,1.512l1.383,1.449l2.767,2.901l5.541,5.81c1.856,1.93,3.677,3.896,5.567,5.798l5.827,5.554l5.834,5.561l2.92,2.783
			c0.962,0.94,2.019,1.778,3.024,2.673c4.069,3.523,8.144,7.054,12.224,10.585l1.53,1.325c0.519,0.433,1.058,0.838,1.586,1.258
			l3.186,2.503l6.376,5.011c2.133,1.661,4.24,3.36,6.398,4.995l6.624,4.709l6.63,4.714l3.318,2.358
			c1.1,0.796,2.274,1.482,3.408,2.229c4.573,2.931,9.151,5.864,13.733,8.801l1.718,1.102l1.769,1.021l3.541,2.035l7.087,4.074
			c2.371,1.345,4.711,2.747,7.11,4.046l7.289,3.731l7.294,3.734l3.649,1.868c1.221,0.613,2.485,1.14,3.725,1.715
			c4.984,2.252,9.972,4.506,14.963,6.762l1.875,0.84l1.911,0.753l3.824,1.509l7.651,3.015c2.558,0.989,5.089,2.049,7.669,2.979
			l7.8,2.639l7.804,2.64l3.902,1.32c1.303,0.437,2.639,0.767,3.956,1.156c5.288,1.5,10.578,3.002,15.87,4.504l1.985,0.563
			l2.009,0.471l4.021,0.929l8.046,1.854l8.051,1.847l8.134,1.45l8.137,1.452c2.717,0.459,5.415,1.042,8.158,1.326l16.409,2.083
			c1.369,0.161,2.733,0.373,4.105,0.494l4.123,0.313l8.247,0.626l8.248,0.626c1.373,0.134,2.753,0.161,4.133,0.189l4.142,0.104
			l16.552,0.416l16.548-0.416l4.138-0.104c1.379-0.028,2.758-0.057,4.132-0.189l8.252-0.626l8.25-0.626l4.125-0.313
			c1.373-0.12,2.735-0.332,4.104-0.494l16.409-2.082c2.744-0.284,5.441-0.868,8.158-1.327l8.137-1.451l8.134-1.45l8.053-1.847
			l8.045-1.854l4.021-0.928l2.008-0.472l1.985-0.563c5.292-1.502,10.582-3.004,15.869-4.504c1.317-0.391,2.653-0.721,3.956-1.157
			l3.903-1.319l7.804-2.64l7.8-2.638c2.58-0.933,5.111-1.991,7.669-2.98l7.651-3.016l3.823-1.508l1.91-0.753l1.875-0.84
			c4.991-2.256,9.979-4.51,14.963-6.762c1.24-0.575,2.505-1.101,3.727-1.715l3.648-1.868l7.295-3.734l7.287-3.731
			c2.399-1.298,4.739-2.701,7.11-4.046l7.087-4.074l3.541-2.035l1.771-1.02l1.718-1.102c4.582-2.938,9.16-5.871,13.732-8.802
			c1.135-0.747,2.309-1.435,3.407-2.229l3.318-2.357l6.631-4.714l6.623-4.709c2.158-1.636,4.266-3.334,6.397-4.996l6.378-5.01
			l3.186-2.503c0.527-0.421,1.067-0.826,1.586-1.259l1.529-1.323c4.08-3.533,8.153-7.063,12.225-10.586
			c1.005-0.896,2.063-1.732,3.024-2.673l2.919-2.782l5.835-5.563l5.826-5.553c1.891-1.901,3.711-3.869,5.566-5.798l5.54-5.81
			l2.769-2.901l1.383-1.449l1.313-1.512c3.497-4.035,6.989-8.065,10.477-12.091c27.311-32.676,49.819-68.706,66.516-106.581
			c1.066-2.355,2.131-4.711,3.194-7.063c0.949-2.4,1.896-4.798,2.845-7.193c1.868-4.801,3.826-9.557,5.609-14.363
			c1.645-4.858,3.284-9.706,4.923-14.542l1.227-3.625l0.608-1.813l0.521-1.839c0.695-2.45,1.392-4.896,2.086-7.341
			s1.389-4.886,2.08-7.324c0.688-2.44,1.432-4.862,1.947-7.34c1.138-4.928,2.273-9.844,3.405-14.747l0.849-3.675
			c0.294-1.223,0.462-2.47,0.699-3.701c0.44-2.471,0.883-4.938,1.323-7.401c0.439-2.465,0.88-4.926,1.318-7.383l0.658-3.685
			c0.229-1.227,0.334-2.471,0.507-3.702c1.211-9.884,2.716-19.688,3.244-29.524c0.188-2.455,0.374-4.905,0.562-7.353l0.278-3.669
			l0.139-1.832l0.047-1.837c0.124-4.898,0.248-9.781,0.372-14.649c0.047-2.431,0.158-4.873,0.15-7.284
			c-0.061-2.425-0.122-4.847-0.183-7.264c-0.121-4.835-0.242-9.656-0.363-14.46c-0.288-4.796-0.706-9.57-1.05-14.332
			c-0.377-4.76-0.631-9.517-1.332-14.21c-0.597-4.705-1.191-9.394-1.785-14.067l-0.444-3.501l-0.619-3.468
			c-0.412-2.311-0.823-4.617-1.234-6.919c-0.411-2.302-0.82-4.6-1.229-6.894c-0.435-2.289-0.751-4.597-1.326-6.848
			c-1.043-4.524-2.083-9.031-3.119-13.521c-0.528-2.242-1.01-4.492-1.574-6.716c-0.627-2.208-1.252-4.412-1.877-6.612
			c-1.248-4.399-2.491-8.781-3.729-13.145c-1.346-4.332-2.871-8.587-4.288-12.858c-0.723-2.131-1.44-4.259-2.158-6.381
			c-0.368-1.058-0.697-2.129-1.097-3.173l-1.229-3.117c-12.646-33.391-28.74-64.138-47.09-91.698
			c-1.079-1.768-2.335-3.41-3.513-5.099c-1.193-1.678-2.384-3.352-3.569-5.021c-2.393-3.325-4.694-6.689-7.122-9.932
			c-2.503-3.186-4.992-6.355-7.468-9.506c-1.238-1.576-2.474-3.146-3.703-4.713c-0.623-0.776-1.211-1.581-1.862-2.331l-1.947-2.25
			c-10.249-12.083-20.734-23.496-31.613-33.956c-21.664-21.022-44.29-38.77-66.769-53.544
			c-22.486-14.769-44.777-26.703-66.172-35.896c-5.255-2.515-10.628-4.448-15.806-6.532c-2.597-1.024-5.164-2.037-7.703-3.039
			c-0.635-0.25-1.27-0.5-1.899-0.749c-0.638-0.233-1.281-0.439-1.92-0.659c-1.277-0.433-2.55-0.863-3.813-1.291
			c-5.056-1.711-9.992-3.382-14.811-5.013c-4.876-1.441-9.658-2.759-14.301-4.091c-37.253-10.385-67.645-13.739-88.25-15.082
			c-2.58-0.196-5.009-0.381-7.285-0.555c-1.136-0.11-2.24-0.122-3.305-0.148c-1.064-0.027-2.09-0.053-3.077-0.078
			c-3.946-0.101-7.268-0.185-9.941-0.253c-5.349-0.136-8.107-0.206-8.107-0.206h0.004V0.284z"/>
	</g>
	<g>
		<g>
			<g>
				<polygon fill="#FFFFFF" points="148.543,352.147 140.803,177.771 286.515,71.904 449.964,133.152 449.964,276.151 
					286.515,394.904 				"/>
				<path d="M148.343,352.156c-0.86-14.521-1.803-29.04-2.595-43.564l-2.459-43.571l-2.456-43.571l-2.255-43.58l-0.061-1.179
					l0.977-0.721l72.467-53.469l18.117-13.367l18.176-13.286l36.364-26.555l1.396-1.019l1.635,0.607l81.799,30.426l40.898,15.212
					l20.45,7.606l20.413,7.704l2.309,0.872l-0.006,2.451l-0.345,142.999l-0.004,1.64l-1.316,0.952l-40.934,29.589l-41.065,29.409
					l-82.158,58.78l-0.827,0.592l-0.939-0.3l-17.201-5.491l-17.183-5.551l-34.365-11.102l-34.365-11.101l-34.458-11.274
					L148.343,352.156z M148.737,351.998l137.854,42.661l-0.227,0.038L449.766,275.88l-0.138,0.271l-0.056-142.999l0.254,0.367
					l-163.43-61.297l0.319-0.043l-145.753,105.81l0.11-0.229L148.737,351.998z"/>
			</g>
			<g>
				<polygon fill="#FFFFFF" points="804.486,659.965 636.252,706.488 550.98,587.049 613.413,394.904 751.385,352.148 
					860.143,488.67 				"/>
				<path d="M804.54,660.157c-13.963,4.084-27.903,8.247-41.884,12.266l-41.919,12.135l-41.92,12.135l-41.974,11.938l-1.479,0.421
					l-0.922-1.271l-43.072-59.407l-21.537-29.704l-10.717-14.888l-10.695-14.904l-0.92-1.282l0.488-1.517l30.982-96.148
					l15.492-48.073l7.746-24.037c2.567-8.018,5.18-16.021,7.809-24.018l0.58-1.766l1.758-0.54l138.073-42.424l2.109-0.648
					l1.361,1.717l27.106,34.196l13.543,17.107l13.472,17.164l53.882,68.656l0.759,0.966l-0.378,1.136l-14.227,42.723l-14.406,42.663
					l-14.424,42.658c-4.78,14.229-9.704,28.41-14.554,42.616l-0.034,0.102L804.54,660.157z M804.329,659.801l55.557-171.214
					l0.046,0.251L751.12,352.359l0.364,0.112l-137.954,42.81l0.258-0.255L551.291,587.15l-0.045-0.29l85.225,119.473l-0.29-0.103
					L804.329,659.801z"/>
			</g>
			<g>
				<polygon fill="#FFFFFF" points="613.413,394.904 449.964,276.151 449.964,133.152 613.413,71.904 759.126,177.771 
					751.385,352.148 				"/>
				<path d="M613.377,395.123l-20.752-14.571l-20.628-14.573l-41.22-29.197l-20.609-14.599l-20.551-14.679l-41.081-29.388
					l-0.992-0.709l-0.009-1.255l-0.525-71.5l-0.12-17.875l-0.043-17.875l-0.087-35.75l-0.005-2.213l2.085-0.788l81.65-30.823
					l40.825-15.411l20.413-7.706c6.799-2.581,13.612-5.124,20.433-7.652l1.81-0.671l1.543,1.126L760.97,175.233l1.368,1
					l-0.079,1.677l-1.02,21.795l-1.098,21.791l-2.254,43.58l-4.507,87.16l-0.074,1.42l-1.331,0.4l-17.292,5.198l-17.311,5.138
					l-34.62,10.277l-34.621,10.277L613.377,395.123z M613.449,394.683l137.858-42.78l-0.18,0.234l7.673-174.38l0.133,0.277
					L613.181,72.224l0.371,0.05l-163.47,61.192l0.218-0.314l-0.056,142.999l-0.115-0.226L613.449,394.683z"/>
			</g>
			<g>
				<polygon fill="#FFFFFF" points="263.675,706.487 95.442,659.965 39.786,488.67 148.543,352.147 286.515,394.904 
					348.946,587.049 				"/>
				<path d="M263.622,706.68c-14.077-3.67-28.175-7.261-42.234-10.996l-42.197-11.126l-42.197-11.129L94.85,662.106l-1.138-0.307
					l-0.383-1.148l-28.455-85.443l-7.114-21.361l-7.023-21.391l-14.018-42.789l-0.538-1.642l1.082-1.365l54.213-68.394
					l27.106-34.197l13.553-17.098l13.627-17.039l1.521-1.902l2.31,0.722l137.869,43.089l1.593,0.498l0.507,1.574l15.492,48.074
					l15.287,48.141l30.518,96.299l0.311,0.982l-0.587,0.809l-10.779,14.844l-10.837,14.805l-21.673,29.604l-21.673,29.605
					l-21.866,29.639L263.622,706.68z M263.593,706.257L348.737,586.9l-0.035,0.229l-62.506-192.12l0.22,0.217l-137.989-42.703
					l0.423-0.13L40.052,488.881l0.057-0.314l55.588,171.315l-0.184-0.176L263.593,706.257z"/>
			</g>
			<g>
				<polygon fill="#FFFFFF" points="636.252,706.488 540.02,852.111 359.91,852.111 263.676,706.487 348.947,587.049 
					550.98,587.049 				"/>
				<path d="M636.419,706.599c-7.841,12.253-15.613,24.553-23.51,36.769l-23.623,36.692l-23.623,36.693l-23.792,36.582l-0.643,0.986
					l-1.21,0.009l-90.055,0.658l-22.514,0.164l-22.515,0.072l-45.026,0.108l-1.727,0.004l-0.963-1.45l-48.293-72.694l-24.146-36.349
					l-12.073-18.174l-11.999-18.224l-1.348-2.048l1.421-1.979l85.558-119.233l0.966-1.346l1.642,0.004l50.508,0.121l50.508,0.34
					l101.018,0.733l1.05,0.007l0.585,0.835l10.539,15.016l10.48,15.058l20.963,30.112l20.963,30.113l20.932,30.305L636.419,706.599z
					 M636.01,706.492l-85.237-119.294l0.209,0.106l-202.033,0.079l0.272-0.141l-85.225,119.472l0.008-0.445l96.189,145.654
					l-0.283-0.152l180.108,0.07l-0.224,0.12L636.01,706.492z"/>
			</g>
		</g>
		<path stroke="#000000" stroke-miterlimit="10" d="M140.803,177.771l-64.246,21.104C31.015,266.438,3.328,347.031,0.256,433.891
			l39.53,54.779l108.758-136.523L140.803,177.771z M613.413,71.904l-39.991-54.672C534.191,6.065,492.775,0.084,449.964,0.084
			c-42.811,0-84.227,5.98-123.457,17.148l-39.992,54.672l163.449,61.248L613.413,71.904z M550.98,587.049l62.433-192.145
			L449.964,276.151L286.515,394.904l62.431,192.145H550.98z M823.37,198.874l-64.244-21.103l-7.741,174.377L860.143,488.67
			l39.529-54.777C896.6,347.032,868.914,266.438,823.37,198.874z M540.02,852.111l64.503,20.728
			C684,843.775,752.989,792.936,804.269,727.543l0.22-67.578l-168.234,46.523L540.02,852.111z M95.442,659.965l0.217,67.58
			c51.28,65.391,120.27,116.229,199.748,145.294l64.501-20.728l-96.234-145.624L95.442,659.965z"/>
	</g>
</g>
<path opacity="0.3" fill="#FFFFFF" fill-opacity="0.6" enable-background="new    " d="M56.661,327.704
	c37.71,103.608,205.051,137.82,373.765,76.413C599.14,342.709,705.338,208.938,667.629,105.33
	C629.918,1.721,462.578-32.49,293.864,28.917c-13.928,5.069-27.429,10.631-40.458,16.629c-9.26,4.263-18.283,8.746-27.05,13.428
	C109.28,121.494,37.631,219.546,50.554,303.823C51.797,311.925,53.82,319.9,56.661,327.704z"/>
<path fill="#FFFFFF" stroke="#000000" stroke-miterlimit="10" d="M16.013,330.577"/>
</svg>
